HIERARCHY
ROOT root
{
	OFFSET	0	13.1	24.9
	CHANNELS 6  Xposition Yposition Zposition Xrotation Yrotation Zrotation
	JOINT spine_1
	{
		OFFSET	0	9.99999	0
		CHANNELS 3  Xrotation Yrotation Zrotation
		JOINT spine_2
		{
			OFFSET	0	112	-10
			CHANNELS 3  Xrotation Yrotation Zrotation
			JOINT spine_3
			{
				OFFSET	0	206.5	19.3
				CHANNELS 3  Xrotation Yrotation Zrotation
				JOINT spine_4
				{
					OFFSET	0	110.4	14.6
					CHANNELS 3  Xrotation Yrotation Zrotation
					JOINT neck_1
					{
						OFFSET	0	71.8	-50.3
						CHANNELS 3  Xrotation Yrotation Zrotation
						JOINT neck_2
						{
							OFFSET	0	86.2	-25.8
							CHANNELS 3  Xrotation Yrotation Zrotation
							JOINT head_ee
							{
								OFFSET	0	179.8	-8.7
								CHANNELS 3  Xrotation Yrotation Zrotation
								End Site
								{
									OFFSET	1	0	0
								}
							}
						}
					}
					JOINT left_clavicle
					{
						OFFSET	-43.2	22.4	-70.8
						CHANNELS 3  Xrotation Yrotation Zrotation
						JOINT left_shoulder
						{
							OFFSET	-93.9	-5.79999	48.7
							CHANNELS 3  Xrotation Yrotation Zrotation
							JOINT left_elbow
							{
								OFFSET	-291.4	-30.8	15.2
								CHANNELS 3  Xrotation Yrotation Zrotation
								JOINT left_lowarm_twist
								{
									OFFSET	-110.7	-3.89999	13.6
									CHANNELS 3  Xrotation Yrotation Zrotation
									JOINT left_hand
									{
										OFFSET	-110.7	-3.89999	13.6
										CHANNELS 3  Xrotation Yrotation Zrotation
										JOINT left_ee
										{
											OFFSET	-80.8	-5.10001	12.1
											CHANNELS 3  Xrotation Yrotation Zrotation
											End Site
											{
												OFFSET	1	0	0
											}
										}
									}
								}
							}
						}
					}
					JOINT right_clavicle
					{
						OFFSET	43.2	22.4	-70.8
						CHANNELS 3  Xrotation Yrotation Zrotation
						JOINT right_shoulder
						{
							OFFSET	93.9	-5.79999	48.7
							CHANNELS 3  Xrotation Yrotation Zrotation
							JOINT right_elbow
							{
								OFFSET	291.4	-30.8	15.2
								CHANNELS 3  Xrotation Yrotation Zrotation
								JOINT right_lowarm_twist
								{
									OFFSET	110.7	-3.89999	13.6
									CHANNELS 3  Xrotation Yrotation Zrotation
									JOINT right_hand
									{
										OFFSET	110.7	-3.89999	13.6
										CHANNELS 3  Xrotation Yrotation Zrotation
										JOINT right_ee
										{
											OFFSET	80.8	-5.10001	12.1
											CHANNELS 3  Xrotation Yrotation Zrotation
											End Site
											{
												OFFSET	1	0	0
											}
										}
									}
								}
							}
						}
					}
				}
			}
		}
	}
	JOINT left_hip
	{
		OFFSET	-82.8	-127.5	0.300001
		CHANNELS 3  Xrotation Yrotation Zrotation
		JOINT left_knee
		{
			OFFSET	-28.2	-396.7	2.2
			CHANNELS 3  Xrotation Yrotation Zrotation
			JOINT left_ankle
			{
				OFFSET	-11.7	-411.3	35.4
				CHANNELS 3  Xrotation Yrotation Zrotation
				JOINT left_toes
				{
					OFFSET	0	-60	-88.6
					CHANNELS 3  Xrotation Yrotation Zrotation
					JOINT left_foot_ee
					{
						OFFSET	-22.5	-16.5	-42.2
						CHANNELS 3  Xrotation Yrotation Zrotation
						End Site
						{
							OFFSET	1	0	0
						}
					}
				}
			}
		}
	}
	JOINT right_hip
	{
		OFFSET	82.8	-127.5	0.300001
		CHANNELS 3  Xrotation Yrotation Zrotation
		JOINT right_knee
		{
			OFFSET	28.2	-396.7	2.2
			CHANNELS 3  Xrotation Yrotation Zrotation
			JOINT right_ankle
			{
				OFFSET	11.7	-411.3	35.4
				CHANNELS 3  Xrotation Yrotation Zrotation
				JOINT right_toes
				{
					OFFSET	0	-60	-88.6
					CHANNELS 3  Xrotation Yrotation Zrotation
					JOINT right_foot_ee
					{
						OFFSET	22.5	-16.5	-42.2
						CHANNELS 3  Xrotation Yrotation Zrotation
						End Site
						{
							OFFSET	1	0	0
						}
					}
				}
			}
		}
	}
}
MOTION
Frames: 5
Frame Time: 0.02
530.781 716.723 -1267.87 -166.816 72.9061 161.866 0.745038 0.276736 1.91702 0.74707 0.154213 1.93074 0.752915 -0.229832 1.92321 0.747761 0.0767284 1.93537 -16.5547 4.55406 -6.26264 -16.6049 12.2906 -4.2468 -0.0 0.0 -0.0 6.49776 -24.3974 11.2885 -9.58324 -33.7111 55.4177 1.34421 -33.6573 0.406593 -55.862 -4.77308 4.95383 -0.737285 -1.50216 -5.58405 -0.0 0.0 -0.0 8.95052 -15.4656 -16.3625 -33.1588 42.6915 -59.9428 0.474221 13.2202 -0.0549542 27.4415 -0.138318 3.46938 0.356952 12.9024 3.08171 0.0 0.0 0.0 14.1769 -9.14644 7.53354 -5.87375 0.19689 0.879552 23.0309 -17.1836 -3.39191 -12.7303 0.0 0.0 -0.0 0.0 -0.0 19.6976 8.9559 8.79401 -20.9783 -0.282727 -3.18892 24.5157 -7.14406 3.27449 0.690947 -0.0 -0.0 0.0 0.0 0.0 
526.577 717.797 -1271.44 -167.284 71.9115 162.342 0.669744 0.274441 1.95615 0.671861 0.149435 1.96964 0.67771 -0.244773 1.96008 0.672355 0.0677942 1.97413 -16.9482 4.57078 -6.62506 -16.9982 12.4903 -4.54142 -0.0 0.0 -0.0 6.60638 -24.6946 11.497 -10.3042 -34.7667 55.5229 1.34409 -33.6549 0.406525 -56.7611 -4.88292 4.98898 -0.664608 -2.42357 -5.4949 -0.0 0.0 -0.0 8.82823 -17.1786 -15.9552 -33.1014 42.9564 -60.159 0.515433 14.3235 -0.0647653 27.6183 -0.133804 3.49152 0.522218 15.005 2.87309 0.0 0.0 0.0 14.1347 -7.8382 7.18111 -6.29701 0.207577 0.943629 22.6853 -19.1828 -3.40239 -12.982 0.0 0.0 -0.0 0.0 -0.0 18.7835 9.06404 9.75045 -19.0352 -0.305871 -2.89169 21.728 -3.53911 2.94786 1.30281 -0.0 -0.0 0.0 0.0 0.0 
519.646 716.844 -1270.31 -168.242 72.6864 162.89 0.672139 0.408469 2.11922 0.674596 0.272821 2.14091 0.685719 -0.1575 2.15246 0.6793 0.184337 2.15033 -16.5842 4.75756 -5.94426 -16.6515 12.4973 -3.86919 -0.0 0.0 -0.0 6.66298 -24.5426 11.6357 -11.3196 -35.3999 55.7187 1.25315 -31.8296 0.357334 -57.7163 -5.00018 5.02442 -0.630911 -2.76061 -5.41373 -0.0 0.0 -0.0 8.88113 -18.2756 -15.9057 -33.4451 42.7861 -59.4023 0.493821 13.7462 -0.0595239 28.5292 -0.109466 3.60533 0.371355 15.5213 4.10859 0.0 0.0 0.0 13.8171 -6.85666 7.32511 -8.03955 0.246577 1.20818 23.0472 -20.2938 -3.48291 -12.5944 0.0 0.0 -0.0 0.0 -0.0 18.1086 7.62263 9.66321 -19.512 -0.301125 -2.96469 20.0537 -3.43047 2.743 1.805 -0.0 -0.0 0.0 0.0 0.0 
511.533 716.458 -1271.84 -167.225 73.0362 162.089 0.813451 0.500093 2.00913 0.81562 0.371261 2.03686 0.829649 -0.0350947 2.07011 0.823788 0.292211 2.04969 -16.7947 5.10398 -5.29243 -16.8945 12.7764 -3.10522 -0.0 0.0 -0.0 6.7171 -24.7982 11.729 -12.514 -35.6552 55.9688 1.20117 -30.7526 0.330335 -58.4222 -5.08721 5.04936 -0.671525 -3.96644 -6.21102 -0.0 0.0 -0.0 8.98074 -19.0803 -15.961 -33.0675 42.5537 -59.2901 0.498452 13.8702 -0.0606294 29.1153 -0.0928506 3.67835 0.346854 16.7652 4.80702 0.0 0.0 0.0 13.4148 -6.0185 6.87634 -7.79798 0.241651 1.17144 23.7786 -20.0924 -3.57163 -12.2732 0.0 0.0 -0.0 0.0 -0.0 17.8524 7.2185 8.59756 -18.9266 -0.306867 -2.87504 20.1923 -5.87774 2.75513 2.78585 -0.0 -0.0 0.0 0.0 0.0 
505.624 714.273 -1271.65 -167.981 72.7174 162.607 0.924774 0.491099 2.13768 0.927246 0.354111 2.16457 0.94145 -0.0726802 2.19213 0.934849 0.274355 2.17612 -15.0351 4.71686 -3.7073 -15.1068 11.2187 -1.93032 -0.0 0.0 -0.0 6.46335 -22.7174 11.3722 -13.2823 -36.578 56.7397 1.20558 -30.8448 0.33259 -59.5901 -5.23181 5.08823 -0.703505 -2.44804 -5.76796 -0.0 0.0 -0.0 9.21227 -19.128 -16.3265 -33.7909 43.1407 -58.7399 0.494007 13.7512 -0.0595681 29.9755 -0.0671117 3.78521 -0.0166757 15.6044 6.75586 0.0 0.0 0.0 12.4796 -4.46201 6.98431 -8.08784 0.247543 1.21553 24.018 -20.4418 -3.61361 -11.4271 0.0 0.0 -0.0 0.0 -0.0 17.9994 3.50091 8.6653 -19.1563 -0.304723 -2.91023 21.9387 -6.28739 2.96832 3.23765 -0.0 -0.0 0.0 0.0 0.0 
